<?xml version="1.0" standalone="no"?><!DOCTYPE svg PUBLIC "-//W3C//DTD SVG 1.1//EN" "http://www.w3.org/Graphics/SVG/1.1/DTD/svg11.dtd"><svg t="1649321348503" class="icon" viewBox="0 0 1024 1024" version="1.1" xmlns="http://www.w3.org/2000/svg" p-id="2731" xmlns:xlink="http://www.w3.org/1999/xlink" width="200" height="200"><defs><style type="text/css">@font-face { font-family: feedback-iconfont; src: url("//at.alicdn.com/t/font_1031158_u69w8yhxdu.woff2?t=1630033759944") format("woff2"), url("//at.alicdn.com/t/font_1031158_u69w8yhxdu.woff?t=1630033759944") format("woff"), url("//at.alicdn.com/t/font_1031158_u69w8yhxdu.ttf?t=1630033759944") format("truetype"); }
</style></defs><path d="M617.186156 162.052816l-315.485301 0c-28.086685 0-52.579519 17.558911-63.104223 42.076304l-105.161085 248.913093c-3.491521 6.984065-7.034207 13.993712-7.034207 24.492834l0 66.626443 0 3.515057c0 38.538735 31.526017 70.091358 70.140477 70.091358l220.84892 0-35.069727 161.258731 0 10.525728c0 13.992689 6.978948 28.036543 14.017248 38.534642l38.561247 35.069727 231.324506-231.345995c14.069437-14.043854 21.048385-31.5516 21.048385-49.114604l0-350.502839C687.272397 193.60544 655.748427 162.052816 617.186156 162.052816M757.364779 582.696132l140.231835 0 0-420.643316-140.231835 0L757.364779 582.696132z" p-id="2732" fill="#99a2aa"></path></svg>