<?xml version="1.0" standalone="no"?><!DOCTYPE svg PUBLIC "-//W3C//DTD SVG 1.1//EN" "http://www.w3.org/Graphics/SVG/1.1/DTD/svg11.dtd"><svg t="1652339600458" class="icon" viewBox="0 0 1024 1024" version="1.1" xmlns="http://www.w3.org/2000/svg" p-id="2045" xmlns:xlink="http://www.w3.org/1999/xlink" width="200" height="200"><defs><style type="text/css">@font-face { font-family: feedback-iconfont; src: url("//at.alicdn.com/t/font_1031158_u69w8yhxdu.woff2?t=1630033759944") format("woff2"), url("//at.alicdn.com/t/font_1031158_u69w8yhxdu.woff?t=1630033759944") format("woff"), url("//at.alicdn.com/t/font_1031158_u69w8yhxdu.ttf?t=1630033759944") format("truetype"); }
</style></defs><path d="M910.464 901.632 113.536 901.632c-46.272 0-83.904-37.504-83.904-83.84L29.632 230.656c0-46.336 37.568-83.904 83.904-83.904l796.928 0c46.272 0 83.84 37.568 83.84 83.904l0 587.2C994.24 864.128 956.672 901.632 910.464 901.632L910.464 901.632zM952.32 230.656c0-23.168-18.752-41.92-41.856-41.92L113.536 188.736c-23.168 0-41.92 18.752-41.92 41.92l0 587.2c0 23.104 18.752 41.856 41.92 41.856l796.928 0c23.104 0 41.856-18.752 41.856-41.856L952.32 230.656 952.32 230.656zM785.536 391.552c-1.152 1.088-2.432 1.664-3.648 2.368L571.264 604.544c-32.768 32.768-85.824 32.768-118.656 0L241.344 393.216c-0.064 0-0.128-0.064-0.192-0.128L181.76 333.76c-8.128-8.192-8.128-21.44 0-29.632 8.128-8.192 21.44-8.192 29.632 0L218.368 311.04 218.368 310.976l263.936 263.936c16.448 16.32 42.944 16.32 59.328 0l210.944-211.008c0.704-1.024 1.28-2.304 2.176-3.264l61.568-61.568c8.576-8.448 22.4-8.448 30.848 0 8.512 8.512 8.512 22.336 0 30.784L785.536 391.552 785.536 391.552zM279.936 621.056c8.128-8.128 21.376-8.128 29.568 0 8.256 8.192 8.256 21.504 0 29.696l-97.6 97.728c-8.192 8.064-21.44 8.064-29.696 0-8.192-8.32-8.192-21.568 0-29.824L279.936 621.056 279.936 621.056zM738.432 614.144l102.976 102.976c8.512 8.576 8.512 22.528 0 30.976-8.64 8.576-22.464 8.576-30.976 0l-102.976-103.04c-8.576-8.448-8.576-22.4 0-30.912C716.032 605.632 729.856 605.632 738.432 614.144L738.432 614.144z" p-id="2046"></path></svg>